<svg xmlns="http://www.w3.org/2000/svg" version="1.1" xmlns:xlink="http://www.w3.org/1999/xlink" xmlns:svgjs="http://svgjs.dev/svgjs" width="1440" height="560" preserveAspectRatio="none" viewBox="0 0 1440 560"><g mask="url(&quot;#SvgjsMask1491&quot;)" fill="none"><rect width="1440" height="560" x="0" y="0" fill="rgba(24, 48, 89, 1)"></rect><path d="M-79.56 381.96L-79.56 381.96" stroke="rgba(50, 70, 112, 1)" stroke-width="1.5"></path><path d="M-79.56 381.96L41.14 387.91" stroke="rgba(50, 70, 112, 1)" stroke-width="1.5"></path><path d="M-79.56 381.96L-105.54 500.21" stroke="rgba(50, 70, 112, 1)" stroke-width="1.5"></path><path d="M-79.56 381.96L-52.21 655.78" stroke="rgba(50, 70, 112, 1)" stroke-width="1.5"></path><path d="M-105.54 500.21L-105.54 500.21" stroke="rgba(50, 70, 112, 1)" stroke-width="1.5"></path><path d="M-105.54 500.21L-52.21 655.78" stroke="rgba(50, 70, 112, 1)" stroke-width="1.5"></path><path d="M-105.54 500.21L41.14 387.91" stroke="rgba(50, 70, 112, 1)" stroke-width="1.5"></path><path d="M-105.54 500.21L105.31 686.68" stroke="rgba(50, 70, 112, 1)" stroke-width="1.5"></path><path d="M-105.54 500.21L238.26 499.13" stroke="rgba(50, 70, 112, 1)" stroke-width="1.5"></path><path d="M-52.21 655.78L-52.21 655.78" stroke="rgba(50, 70, 112, 1)" stroke-width="1.5"></path><path d="M-52.21 655.78L105.31 686.68" stroke="rgba(50, 70, 112, 1)" stroke-width="1.5"></path><path d="M-52.21 655.78L41.14 387.91" stroke="rgba(50, 70, 112, 1)" stroke-width="1.5"></path><path d="M-52.21 655.78L241.6 679.31" stroke="rgba(50, 70, 112, 1)" stroke-width="1.5"></path><path d="M41.14 387.91L41.14 387.91" stroke="rgba(50, 70, 112, 1)" stroke-width="1.5"></path><path d="M41.14 387.91L248.5 379.54" stroke="rgba(50, 70, 112, 1)" stroke-width="1.5"></path><path d="M105.31 686.68L105.31 686.68" stroke="rgba(50, 70, 112, 1)" stroke-width="1.5"></path><path d="M105.31 686.68L241.6 679.31" stroke="rgba(50, 70, 112, 1)" stroke-width="1.5"></path><path d="M105.31 686.68L238.26 499.13" stroke="rgba(50, 70, 112, 1)" stroke-width="1.5"></path><path d="M105.31 686.68L354.58 666.95" stroke="rgba(50, 70, 112, 1)" stroke-width="1.5"></path><path d="M248.5 379.54L248.5 379.54" stroke="rgba(50, 70, 112, 1)" stroke-width="1.5"></path><path d="M248.5 379.54L238.26 499.13" stroke="rgba(50, 70, 112, 1)" stroke-width="1.5"></path><path d="M248.5 379.54L382.43 359.5" stroke="rgba(50, 70, 112, 1)" stroke-width="1.5"></path><path d="M248.5 379.54L508.37 491.06" stroke="rgba(50, 70, 112, 1)" stroke-width="1.5"></path><path d="M238.26 499.13L238.26 499.13" stroke="rgba(50, 70, 112, 1)" stroke-width="1.5"></path><path d="M238.26 499.13L241.6 679.31" stroke="rgba(50, 70, 112, 1)" stroke-width="1.5"></path><path d="M238.26 499.13L382.43 359.5" stroke="rgba(50, 70, 112, 1)" stroke-width="1.5"></path><path d="M238.26 499.13L354.58 666.95" stroke="rgba(50, 70, 112, 1)" stroke-width="1.5"></path><path d="M238.26 499.13L41.14 387.91" stroke="rgba(50, 70, 112, 1)" stroke-width="1.5"></path><path d="M241.6 679.31L241.6 679.31" stroke="rgba(50, 70, 112, 1)" stroke-width="1.5"></path><path d="M241.6 679.31L354.58 666.95" stroke="rgba(50, 70, 112, 1)" stroke-width="1.5"></path><path d="M241.6 679.31L248.5 379.54" stroke="rgba(50, 70, 112, 1)" stroke-width="1.5"></path><path d="M382.43 359.5L382.43 359.5" stroke="rgba(50, 70, 112, 1)" stroke-width="1.5"></path><path d="M382.43 359.5L556.95 384.74" stroke="rgba(50, 70, 112, 1)" stroke-width="1.5"></path><path d="M382.43 359.5L508.37 491.06" stroke="rgba(50, 70, 112, 1)" stroke-width="1.5"></path><path d="M354.58 666.95L354.58 666.95" stroke="rgba(50, 70, 112, 1)" stroke-width="1.5"></path><path d="M354.58 666.95L508.37 491.06" stroke="rgba(50, 70, 112, 1)" stroke-width="1.5"></path><path d="M354.58 666.95L248.5 379.54" stroke="rgba(50, 70, 112, 1)" stroke-width="1.5"></path><path d="M354.58 666.95L382.43 359.5" stroke="rgba(50, 70, 112, 1)" stroke-width="1.5"></path><path d="M556.95 384.74L556.95 384.74" stroke="rgba(50, 70, 112, 1)" stroke-width="1.5"></path><path d="M556.95 384.74L508.37 491.06" stroke="rgba(50, 70, 112, 1)" stroke-width="1.5"></path><path d="M508.37 491.06L508.37 491.06" stroke="rgba(50, 70, 112, 1)" stroke-width="1.5"></path><path d="M508.37 491.06L642.73 515.09" stroke="rgba(50, 70, 112, 1)" stroke-width="1.5"></path><path d="M686.74 382.63L686.74 382.63" stroke="rgba(50, 70, 112, 1)" stroke-width="1.5"></path><path d="M686.74 382.63L556.95 384.74" stroke="rgba(50, 70, 112, 1)" stroke-width="1.5"></path><path d="M686.74 382.63L642.73 515.09" stroke="rgba(50, 70, 112, 1)" stroke-width="1.5"></path><path d="M686.74 382.63L788.39 544.96" stroke="rgba(50, 70, 112, 1)" stroke-width="1.5"></path><path d="M686.74 382.63L836.46 238.96" stroke="rgba(50, 70, 112, 1)" stroke-width="1.5"></path><path d="M642.73 515.09L642.73 515.09" stroke="rgba(50, 70, 112, 1)" stroke-width="1.5"></path><path d="M642.73 515.09L788.39 544.96" stroke="rgba(50, 70, 112, 1)" stroke-width="1.5"></path><path d="M642.73 515.09L556.95 384.74" stroke="rgba(50, 70, 112, 1)" stroke-width="1.5"></path><path d="M642.73 515.09L672.95 686.55" stroke="rgba(50, 70, 112, 1)" stroke-width="1.5"></path><path d="M642.73 515.09L819.2 701.55" stroke="rgba(50, 70, 112, 1)" stroke-width="1.5"></path><path d="M672.95 686.55L672.95 686.55" stroke="rgba(50, 70, 112, 1)" stroke-width="1.5"></path><path d="M672.95 686.55L819.2 701.55" stroke="rgba(50, 70, 112, 1)" stroke-width="1.5"></path><path d="M672.95 686.55L788.39 544.96" stroke="rgba(50, 70, 112, 1)" stroke-width="1.5"></path><path d="M841.12 102.95L841.12 102.95" stroke="rgba(50, 70, 112, 1)" stroke-width="1.5"></path><path d="M841.12 102.95L969.78 64.38" stroke="rgba(50, 70, 112, 1)" stroke-width="1.5"></path><path d="M841.12 102.95L836.46 238.96" stroke="rgba(50, 70, 112, 1)" stroke-width="1.5"></path><path d="M836.46 238.96L836.46 238.96" stroke="rgba(50, 70, 112, 1)" stroke-width="1.5"></path><path d="M836.46 238.96L975.29 258.23" stroke="rgba(50, 70, 112, 1)" stroke-width="1.5"></path><path d="M836.46 238.96L959.06 343.09" stroke="rgba(50, 70, 112, 1)" stroke-width="1.5"></path><path d="M836.46 238.96L969.78 64.38" stroke="rgba(50, 70, 112, 1)" stroke-width="1.5"></path><path d="M836.46 238.96L788.39 544.96" stroke="rgba(50, 70, 112, 1)" stroke-width="1.5"></path><path d="M788.39 544.96L788.39 544.96" stroke="rgba(50, 70, 112, 1)" stroke-width="1.5"></path><path d="M788.39 544.96L819.2 701.55" stroke="rgba(50, 70, 112, 1)" stroke-width="1.5"></path><path d="M788.39 544.96L972.03 530.47" stroke="rgba(50, 70, 112, 1)" stroke-width="1.5"></path><path d="M819.2 701.55L819.2 701.55" stroke="rgba(50, 70, 112, 1)" stroke-width="1.5"></path><path d="M819.2 701.55L1008.9 646.68" stroke="rgba(50, 70, 112, 1)" stroke-width="1.5"></path><path d="M819.2 701.55L972.03 530.47" stroke="rgba(50, 70, 112, 1)" stroke-width="1.5"></path><path d="M940.9 -102.16L940.9 -102.16" stroke="rgba(50, 70, 112, 1)" stroke-width="1.5"></path><path d="M940.9 -102.16L969.78 64.38" stroke="rgba(50, 70, 112, 1)" stroke-width="1.5"></path><path d="M940.9 -102.16L1111.6 -84.04" stroke="rgba(50, 70, 112, 1)" stroke-width="1.5"></path><path d="M940.9 -102.16L841.12 102.95" stroke="rgba(50, 70, 112, 1)" stroke-width="1.5"></path><path d="M940.9 -102.16L1154.36 42.77" stroke="rgba(50, 70, 112, 1)" stroke-width="1.5"></path><path d="M969.78 64.38L969.78 64.38" stroke="rgba(50, 70, 112, 1)" stroke-width="1.5"></path><path d="M969.78 64.38L1154.36 42.77" stroke="rgba(50, 70, 112, 1)" stroke-width="1.5"></path><path d="M975.29 258.23L975.29 258.23" stroke="rgba(50, 70, 112, 1)" stroke-width="1.5"></path><path d="M975.29 258.23L959.06 343.09" stroke="rgba(50, 70, 112, 1)" stroke-width="1.5"></path><path d="M959.06 343.09L959.06 343.09" stroke="rgba(50, 70, 112, 1)" stroke-width="1.5"></path><path d="M959.06 343.09L972.03 530.47" stroke="rgba(50, 70, 112, 1)" stroke-width="1.5"></path><path d="M959.06 343.09L1154.03 374.05" stroke="rgba(50, 70, 112, 1)" stroke-width="1.5"></path><path d="M972.03 530.47L972.03 530.47" stroke="rgba(50, 70, 112, 1)" stroke-width="1.5"></path><path d="M972.03 530.47L1008.9 646.68" stroke="rgba(50, 70, 112, 1)" stroke-width="1.5"></path><path d="M972.03 530.47L1122.74 514.28" stroke="rgba(50, 70, 112, 1)" stroke-width="1.5"></path><path d="M972.03 530.47L1092.85 668.83" stroke="rgba(50, 70, 112, 1)" stroke-width="1.5"></path><path d="M1008.9 646.68L1008.9 646.68" stroke="rgba(50, 70, 112, 1)" stroke-width="1.5"></path><path d="M1008.9 646.68L1092.85 668.83" stroke="rgba(50, 70, 112, 1)" stroke-width="1.5"></path><path d="M1008.9 646.68L1122.74 514.28" stroke="rgba(50, 70, 112, 1)" stroke-width="1.5"></path><path d="M1111.6 -84.04L1111.6 -84.04" stroke="rgba(50, 70, 112, 1)" stroke-width="1.5"></path><path d="M1111.6 -84.04L1154.36 42.77" stroke="rgba(50, 70, 112, 1)" stroke-width="1.5"></path><path d="M1111.6 -84.04L1246.15 -102.02" stroke="rgba(50, 70, 112, 1)" stroke-width="1.5"></path><path d="M1111.6 -84.04L969.78 64.38" stroke="rgba(50, 70, 112, 1)" stroke-width="1.5"></path><path d="M1111.6 -84.04L1247.03 83.93" stroke="rgba(50, 70, 112, 1)" stroke-width="1.5"></path><path d="M1154.36 42.77L1154.36 42.77" stroke="rgba(50, 70, 112, 1)" stroke-width="1.5"></path><path d="M1154.36 42.77L1247.03 83.93" stroke="rgba(50, 70, 112, 1)" stroke-width="1.5"></path><path d="M1154.36 42.77L1246.15 -102.02" stroke="rgba(50, 70, 112, 1)" stroke-width="1.5"></path><path d="M1154.36 42.77L1152.68 236.37" stroke="rgba(50, 70, 112, 1)" stroke-width="1.5"></path><path d="M1154.36 42.77L1266.75 253.64" stroke="rgba(50, 70, 112, 1)" stroke-width="1.5"></path><path d="M1152.68 236.37L1152.68 236.37" stroke="rgba(50, 70, 112, 1)" stroke-width="1.5"></path><path d="M1152.68 236.37L1266.75 253.64" stroke="rgba(50, 70, 112, 1)" stroke-width="1.5"></path><path d="M1152.68 236.37L1154.03 374.05" stroke="rgba(50, 70, 112, 1)" stroke-width="1.5"></path><path d="M1152.68 236.37L1253 366.42" stroke="rgba(50, 70, 112, 1)" stroke-width="1.5"></path><path d="M1154.03 374.05L1154.03 374.05" stroke="rgba(50, 70, 112, 1)" stroke-width="1.5"></path><path d="M1154.03 374.05L1253 366.42" stroke="rgba(50, 70, 112, 1)" stroke-width="1.5"></path><path d="M1154.03 374.05L1122.74 514.28" stroke="rgba(50, 70, 112, 1)" stroke-width="1.5"></path><path d="M1154.03 374.05L1266.75 253.64" stroke="rgba(50, 70, 112, 1)" stroke-width="1.5"></path><path d="M1154.03 374.05L1287.01 509.84" stroke="rgba(50, 70, 112, 1)" stroke-width="1.5"></path><path d="M1122.74 514.28L1122.74 514.28" stroke="rgba(50, 70, 112, 1)" stroke-width="1.5"></path><path d="M1122.74 514.28L1092.85 668.83" stroke="rgba(50, 70, 112, 1)" stroke-width="1.5"></path><path d="M1122.74 514.28L1287.01 509.84" stroke="rgba(50, 70, 112, 1)" stroke-width="1.5"></path><path d="M1122.74 514.28L1253 366.42" stroke="rgba(50, 70, 112, 1)" stroke-width="1.5"></path><path d="M1092.85 668.83L1092.85 668.83" stroke="rgba(50, 70, 112, 1)" stroke-width="1.5"></path><path d="M1092.85 668.83L1287.01 509.84" stroke="rgba(50, 70, 112, 1)" stroke-width="1.5"></path><path d="M1092.85 668.83L819.2 701.55" stroke="rgba(50, 70, 112, 1)" stroke-width="1.5"></path><path d="M1092.85 668.83L1154.03 374.05" stroke="rgba(50, 70, 112, 1)" stroke-width="1.5"></path><path d="M1246.15 -102.02L1246.15 -102.02" stroke="rgba(50, 70, 112, 1)" stroke-width="1.5"></path><path d="M1246.15 -102.02L1390.08 -61.53" stroke="rgba(50, 70, 112, 1)" stroke-width="1.5"></path><path d="M1246.15 -102.02L1247.03 83.93" stroke="rgba(50, 70, 112, 1)" stroke-width="1.5"></path><path d="M1247.03 83.93L1247.03 83.93" stroke="rgba(50, 70, 112, 1)" stroke-width="1.5"></path><path d="M1247.03 83.93L1400.36 69.05" stroke="rgba(50, 70, 112, 1)" stroke-width="1.5"></path><path d="M1247.03 83.93L1266.75 253.64" stroke="rgba(50, 70, 112, 1)" stroke-width="1.5"></path><path d="M1266.75 253.64L1266.75 253.64" stroke="rgba(50, 70, 112, 1)" stroke-width="1.5"></path><path d="M1266.75 253.64L1253 366.42" stroke="rgba(50, 70, 112, 1)" stroke-width="1.5"></path><path d="M1253 366.42L1253 366.42" stroke="rgba(50, 70, 112, 1)" stroke-width="1.5"></path><path d="M1253 366.42L1287.01 509.84" stroke="rgba(50, 70, 112, 1)" stroke-width="1.5"></path><path d="M1253 366.42L1422.89 343.03" stroke="rgba(50, 70, 112, 1)" stroke-width="1.5"></path><path d="M1287.01 509.84L1287.01 509.84" stroke="rgba(50, 70, 112, 1)" stroke-width="1.5"></path><path d="M1287.01 509.84L1424.69 497.15" stroke="rgba(50, 70, 112, 1)" stroke-width="1.5"></path><path d="M1287.01 509.84L1415.75 653.15" stroke="rgba(50, 70, 112, 1)" stroke-width="1.5"></path><path d="M1390.08 -61.53L1390.08 -61.53" stroke="rgba(50, 70, 112, 1)" stroke-width="1.5"></path><path d="M1390.08 -61.53L1400.36 69.05" stroke="rgba(50, 70, 112, 1)" stroke-width="1.5"></path><path d="M1390.08 -61.53L1561.09 43.58" stroke="rgba(50, 70, 112, 1)" stroke-width="1.5"></path><path d="M1390.08 -61.53L1247.03 83.93" stroke="rgba(50, 70, 112, 1)" stroke-width="1.5"></path><path d="M1400.36 69.05L1400.36 69.05" stroke="rgba(50, 70, 112, 1)" stroke-width="1.5"></path><path d="M1400.36 69.05L1561.09 43.58" stroke="rgba(50, 70, 112, 1)" stroke-width="1.5"></path><path d="M1400.36 69.05L1400.94 259.8" stroke="rgba(50, 70, 112, 1)" stroke-width="1.5"></path><path d="M1400.36 69.05L1598.32 -39.23" stroke="rgba(50, 70, 112, 1)" stroke-width="1.5"></path><path d="M1400.36 69.05L1266.75 253.64" stroke="rgba(50, 70, 112, 1)" stroke-width="1.5"></path><path d="M1400.94 259.8L1400.94 259.8" stroke="rgba(50, 70, 112, 1)" stroke-width="1.5"></path><path d="M1400.94 259.8L1422.89 343.03" stroke="rgba(50, 70, 112, 1)" stroke-width="1.5"></path><path d="M1400.94 259.8L1266.75 253.64" stroke="rgba(50, 70, 112, 1)" stroke-width="1.5"></path><path d="M1400.94 259.8L1567.88 234.76" stroke="rgba(50, 70, 112, 1)" stroke-width="1.5"></path><path d="M1400.94 259.8L1253 366.42" stroke="rgba(50, 70, 112, 1)" stroke-width="1.5"></path><path d="M1422.89 343.03L1422.89 343.03" stroke="rgba(50, 70, 112, 1)" stroke-width="1.5"></path><path d="M1422.89 343.03L1424.69 497.15" stroke="rgba(50, 70, 112, 1)" stroke-width="1.5"></path><path d="M1422.89 343.03L1578.74 361.06" stroke="rgba(50, 70, 112, 1)" stroke-width="1.5"></path><path d="M1422.89 343.03L1266.75 253.64" stroke="rgba(50, 70, 112, 1)" stroke-width="1.5"></path><path d="M1424.69 497.15L1424.69 497.15" stroke="rgba(50, 70, 112, 1)" stroke-width="1.5"></path><path d="M1424.69 497.15L1415.75 653.15" stroke="rgba(50, 70, 112, 1)" stroke-width="1.5"></path><path d="M1424.69 497.15L1584.8 491.99" stroke="rgba(50, 70, 112, 1)" stroke-width="1.5"></path><path d="M1415.75 653.15L1415.75 653.15" stroke="rgba(50, 70, 112, 1)" stroke-width="1.5"></path><path d="M1415.75 653.15L1584.8 491.99" stroke="rgba(50, 70, 112, 1)" stroke-width="1.5"></path><path d="M1415.75 653.15L1422.89 343.03" stroke="rgba(50, 70, 112, 1)" stroke-width="1.5"></path><path d="M1598.32 -39.23L1598.32 -39.23" stroke="rgba(50, 70, 112, 1)" stroke-width="1.5"></path><path d="M1598.32 -39.23L1561.09 43.58" stroke="rgba(50, 70, 112, 1)" stroke-width="1.5"></path><path d="M1598.32 -39.23L1390.08 -61.53" stroke="rgba(50, 70, 112, 1)" stroke-width="1.5"></path><path d="M1598.32 -39.23L1567.88 234.76" stroke="rgba(50, 70, 112, 1)" stroke-width="1.5"></path><path d="M1561.09 43.58L1561.09 43.58" stroke="rgba(50, 70, 112, 1)" stroke-width="1.5"></path><path d="M1561.09 43.58L1567.88 234.76" stroke="rgba(50, 70, 112, 1)" stroke-width="1.5"></path><path d="M1567.88 234.76L1567.88 234.76" stroke="rgba(50, 70, 112, 1)" stroke-width="1.5"></path><path d="M1567.88 234.76L1578.74 361.06" stroke="rgba(50, 70, 112, 1)" stroke-width="1.5"></path><path d="M1567.88 234.76L1422.89 343.03" stroke="rgba(50, 70, 112, 1)" stroke-width="1.5"></path><path d="M1578.74 361.06L1578.74 361.06" stroke="rgba(50, 70, 112, 1)" stroke-width="1.5"></path><path d="M1578.74 361.06L1584.8 491.99" stroke="rgba(50, 70, 112, 1)" stroke-width="1.5"></path><path d="M1578.74 361.06L1400.94 259.8" stroke="rgba(50, 70, 112, 1)" stroke-width="1.5"></path><path d="M1578.74 361.06L1424.69 497.15" stroke="rgba(50, 70, 112, 1)" stroke-width="1.5"></path><path d="M1584.8 491.99L1584.8 491.99" stroke="rgba(50, 70, 112, 1)" stroke-width="1.5"></path><path d="M1584.8 491.99L1422.89 343.03" stroke="rgba(50, 70, 112, 1)" stroke-width="1.5"></path><circle r="5" cx="-79.56" cy="381.96" fill="rgba(50, 70, 112, 1)"></circle><circle r="5" cx="-105.54" cy="500.21" fill="rgba(50, 70, 112, 1)"></circle><circle r="5" cx="-52.21" cy="655.78" fill="rgba(50, 70, 112, 1)"></circle><circle r="5" cx="41.14" cy="387.91" fill="rgba(50, 70, 112, 1)"></circle><circle r="5" cx="105.31" cy="686.68" fill="rgba(50, 70, 112, 1)"></circle><circle r="5" cx="248.5" cy="379.54" fill="rgba(50, 70, 112, 1)"></circle><circle r="5" cx="238.26" cy="499.13" fill="rgba(50, 70, 112, 1)"></circle><circle r="5" cx="241.6" cy="679.31" fill="rgba(50, 70, 112, 1)"></circle><circle r="5" cx="382.43" cy="359.5" fill="rgba(50, 70, 112, 1)"></circle><circle r="5" cx="354.58" cy="666.95" fill="rgba(50, 70, 112, 1)"></circle><circle r="5" cx="556.95" cy="384.74" fill="rgba(50, 70, 112, 1)"></circle><circle r="5" cx="508.37" cy="491.06" fill="rgba(50, 70, 112, 1)"></circle><circle r="5" cx="686.74" cy="382.63" fill="rgba(50, 70, 112, 1)"></circle><circle r="5" cx="642.73" cy="515.09" fill="rgba(50, 70, 112, 1)"></circle><circle r="5" cx="672.95" cy="686.55" fill="rgba(50, 70, 112, 1)"></circle><circle r="5" cx="841.12" cy="102.95" fill="rgba(50, 70, 112, 1)"></circle><circle r="5" cx="836.46" cy="238.96" fill="rgba(50, 70, 112, 1)"></circle><circle r="5" cx="788.39" cy="544.96" fill="rgba(50, 70, 112, 1)"></circle><circle r="5" cx="819.2" cy="701.55" fill="rgba(50, 70, 112, 1)"></circle><circle r="5" cx="940.9" cy="-102.16" fill="rgba(50, 70, 112, 1)"></circle><circle r="5" cx="969.78" cy="64.38" fill="rgba(50, 70, 112, 1)"></circle><circle r="5" cx="975.29" cy="258.23" fill="rgba(50, 70, 112, 1)"></circle><circle r="5" cx="959.06" cy="343.09" fill="rgba(50, 70, 112, 1)"></circle><circle r="5" cx="972.03" cy="530.47" fill="rgba(50, 70, 112, 1)"></circle><circle r="5" cx="1008.9" cy="646.68" fill="rgba(50, 70, 112, 1)"></circle><circle r="5" cx="1111.6" cy="-84.04" fill="rgba(50, 70, 112, 1)"></circle><circle r="5" cx="1154.36" cy="42.77" fill="rgba(50, 70, 112, 1)"></circle><circle r="5" cx="1152.68" cy="236.37" fill="rgba(50, 70, 112, 1)"></circle><circle r="5" cx="1154.03" cy="374.05" fill="rgba(50, 70, 112, 1)"></circle><circle r="5" cx="1122.74" cy="514.28" fill="rgba(50, 70, 112, 1)"></circle><circle r="5" cx="1092.85" cy="668.83" fill="rgba(50, 70, 112, 1)"></circle><circle r="5" cx="1246.15" cy="-102.02" fill="rgba(50, 70, 112, 1)"></circle><circle r="5" cx="1247.03" cy="83.93" fill="rgba(50, 70, 112, 1)"></circle><circle r="5" cx="1266.75" cy="253.64" fill="rgba(50, 70, 112, 1)"></circle><circle r="5" cx="1253" cy="366.42" fill="rgba(50, 70, 112, 1)"></circle><circle r="5" cx="1287.01" cy="509.84" fill="rgba(50, 70, 112, 1)"></circle><circle r="5" cx="1390.08" cy="-61.53" fill="rgba(50, 70, 112, 1)"></circle><circle r="5" cx="1400.36" cy="69.05" fill="rgba(50, 70, 112, 1)"></circle><circle r="5" cx="1400.94" cy="259.8" fill="rgba(50, 70, 112, 1)"></circle><circle r="5" cx="1422.89" cy="343.03" fill="rgba(50, 70, 112, 1)"></circle><circle r="5" cx="1424.69" cy="497.15" fill="rgba(50, 70, 112, 1)"></circle><circle r="5" cx="1415.75" cy="653.15" fill="rgba(50, 70, 112, 1)"></circle><circle r="5" cx="1598.32" cy="-39.23" fill="rgba(50, 70, 112, 1)"></circle><circle r="5" cx="1561.09" cy="43.58" fill="rgba(50, 70, 112, 1)"></circle><circle r="5" cx="1567.88" cy="234.76" fill="rgba(50, 70, 112, 1)"></circle><circle r="5" cx="1578.74" cy="361.06" fill="rgba(50, 70, 112, 1)"></circle><circle r="5" cx="1584.8" cy="491.99" fill="rgba(50, 70, 112, 1)"></circle><path d="M-57.48 535L-57.48 535" stroke="hsla(12.899999999999977, 67.3%, 100%, 0.61)" stroke-width="1.5"></path><path d="M-57.48 535L-81.17 666.05" stroke="hsla(12.899999999999977, 67.3%, 100%, 0.61)" stroke-width="1.5"></path><path d="M-57.48 535L84.27 506.75" stroke="hsla(12.899999999999977, 67.3%, 100%, 0.61)" stroke-width="1.5"></path><path d="M-57.48 535L62.87 647.34" stroke="hsla(12.899999999999977, 67.3%, 100%, 0.61)" stroke-width="1.5"></path><path d="M-57.48 535L188.45 490.23" stroke="hsla(12.899999999999977, 67.3%, 100%, 0.61)" stroke-width="1.5"></path><path d="M-57.48 535L391.69 541.39" stroke="hsla(12.899999999999977, 67.3%, 100%, 0.61)" stroke-width="1.5"></path><path d="M491.04 685.36L491.04 685.36" stroke="hsla(12.899999999999977, 67.3%, 100%, 0.61)" stroke-width="1.5"></path><path d="M491.04 685.36L524.77 554.17" stroke="hsla(12.899999999999977, 67.3%, 100%, 0.61)" stroke-width="1.5"></path><path d="M491.04 685.36L648.94 685.77" stroke="hsla(12.899999999999977, 67.3%, 100%, 0.61)" stroke-width="1.5"></path><path d="M491.04 685.36L391.69 541.39" stroke="hsla(12.899999999999977, 67.3%, 100%, 0.61)" stroke-width="1.5"></path><path d="M491.04 685.36L649.08 545.84" stroke="hsla(12.899999999999977, 67.3%, 100%, 0.61)" stroke-width="1.5"></path><path d="M491.04 685.36L846.77 695.6" stroke="hsla(12.899999999999977, 67.3%, 100%, 0.61)" stroke-width="1.5"></path><path d="M491.04 685.36L188.45 490.23" stroke="hsla(12.899999999999977, 67.3%, 100%, 0.61)" stroke-width="1.5"></path><path d="M1160.68 661.83L1160.68 661.83" stroke="hsla(12.899999999999977, 67.3%, 100%, 0.61)" stroke-width="1.5"></path><path d="M1160.68 661.83L1135.11 540.82" stroke="hsla(12.899999999999977, 67.3%, 100%, 0.61)" stroke-width="1.5"></path><path d="M1160.68 661.83L1297.43 651.19" stroke="hsla(12.899999999999977, 67.3%, 100%, 0.61)" stroke-width="1.5"></path><path d="M1160.68 661.83L970.5 703.52" stroke="hsla(12.899999999999977, 67.3%, 100%, 0.61)" stroke-width="1.5"></path><path d="M1160.68 661.83L1306.77 529.9" stroke="hsla(12.899999999999977, 67.3%, 100%, 0.61)" stroke-width="1.5"></path><path d="M1297.86 261.49L1297.86 261.49" stroke="hsla(12.899999999999977, 67.3%, 100%, 0.61)" stroke-width="1.5"></path><path d="M1297.86 261.49L1296.1 391.43" stroke="hsla(12.899999999999977, 67.3%, 100%, 0.61)" stroke-width="1.5"></path><path d="M1297.86 261.49L1418.43 209.47" stroke="hsla(12.899999999999977, 67.3%, 100%, 0.61)" stroke-width="1.5"></path><path d="M1297.86 261.49L1394.52 394.57" stroke="hsla(12.899999999999977, 67.3%, 100%, 0.61)" stroke-width="1.5"></path><path d="M1297.86 261.49L1126.3 245.25" stroke="hsla(12.899999999999977, 67.3%, 100%, 0.61)" stroke-width="1.5"></path><path d="M1297.43 651.19L1297.43 651.19" stroke="hsla(12.899999999999977, 67.3%, 100%, 0.61)" stroke-width="1.5"></path><path d="M1297.43 651.19L1392.35 647.19" stroke="hsla(12.899999999999977, 67.3%, 100%, 0.61)" stroke-width="1.5"></path><path d="M1297.43 651.19L1306.77 529.9" stroke="hsla(12.899999999999977, 67.3%, 100%, 0.61)" stroke-width="1.5"></path><path d="M1297.43 651.19L1135.11 540.82" stroke="hsla(12.899999999999977, 67.3%, 100%, 0.61)" stroke-width="1.5"></path><path d="M1297.43 651.19L1462.29 489.47" stroke="hsla(12.899999999999977, 67.3%, 100%, 0.61)" stroke-width="1.5"></path><path d="M1547.22 502.15L1547.22 502.15" stroke="hsla(12.899999999999977, 67.3%, 100%, 0.61)" stroke-width="1.5"></path><path d="M1547.22 502.15L1462.29 489.47" stroke="hsla(12.899999999999977, 67.3%, 100%, 0.61)" stroke-width="1.5"></path><path d="M1547.22 502.15L1547.91 669.96" stroke="hsla(12.899999999999977, 67.3%, 100%, 0.61)" stroke-width="1.5"></path><path d="M1547.22 502.15L1394.52 394.57" stroke="hsla(12.899999999999977, 67.3%, 100%, 0.61)" stroke-width="1.5"></path><path d="M1547.22 502.15L1392.35 647.19" stroke="hsla(12.899999999999977, 67.3%, 100%, 0.61)" stroke-width="1.5"></path><path d="M-81.17 666.05L-81.17 666.05" stroke="hsla(12.899999999999977, 67.3%, 100%, 0.61)" stroke-width="1.5"></path><path d="M-81.17 666.05L62.87 647.34" stroke="hsla(12.899999999999977, 67.3%, 100%, 0.61)" stroke-width="1.5"></path><path d="M84.27 506.75L84.27 506.75" stroke="hsla(12.899999999999977, 67.3%, 100%, 0.61)" stroke-width="1.5"></path><path d="M84.27 506.75L188.45 490.23" stroke="hsla(12.899999999999977, 67.3%, 100%, 0.61)" stroke-width="1.5"></path><path d="M84.27 506.75L62.87 647.34" stroke="hsla(12.899999999999977, 67.3%, 100%, 0.61)" stroke-width="1.5"></path><path d="M62.87 647.34L62.87 647.34" stroke="hsla(12.899999999999977, 67.3%, 100%, 0.61)" stroke-width="1.5"></path><path d="M62.87 647.34L188.45 490.23" stroke="hsla(12.899999999999977, 67.3%, 100%, 0.61)" stroke-width="1.5"></path><path d="M62.87 647.34L391.69 541.39" stroke="hsla(12.899999999999977, 67.3%, 100%, 0.61)" stroke-width="1.5"></path><path d="M188.45 490.23L188.45 490.23" stroke="hsla(12.899999999999977, 67.3%, 100%, 0.61)" stroke-width="1.5"></path><path d="M188.45 490.23L391.69 541.39" stroke="hsla(12.899999999999977, 67.3%, 100%, 0.61)" stroke-width="1.5"></path><path d="M188.45 490.23L-81.17 666.05" stroke="hsla(12.899999999999977, 67.3%, 100%, 0.61)" stroke-width="1.5"></path><path d="M188.45 490.23L524.77 554.17" stroke="hsla(12.899999999999977, 67.3%, 100%, 0.61)" stroke-width="1.5"></path><path d="M391.69 541.39L391.69 541.39" stroke="hsla(12.899999999999977, 67.3%, 100%, 0.61)" stroke-width="1.5"></path><path d="M391.69 541.39L524.77 554.17" stroke="hsla(12.899999999999977, 67.3%, 100%, 0.61)" stroke-width="1.5"></path><path d="M391.69 541.39L649.08 545.84" stroke="hsla(12.899999999999977, 67.3%, 100%, 0.61)" stroke-width="1.5"></path><path d="M391.69 541.39L648.94 685.77" stroke="hsla(12.899999999999977, 67.3%, 100%, 0.61)" stroke-width="1.5"></path><path d="M524.77 554.17L524.77 554.17" stroke="hsla(12.899999999999977, 67.3%, 100%, 0.61)" stroke-width="1.5"></path><path d="M524.77 554.17L649.08 545.84" stroke="hsla(12.899999999999977, 67.3%, 100%, 0.61)" stroke-width="1.5"></path><path d="M704.01 388.16L704.01 388.16" stroke="hsla(12.899999999999977, 67.3%, 100%, 0.61)" stroke-width="1.5"></path><path d="M704.01 388.16L790.34 380.02" stroke="hsla(12.899999999999977, 67.3%, 100%, 0.61)" stroke-width="1.5"></path><path d="M704.01 388.16L809.47 510.29" stroke="hsla(12.899999999999977, 67.3%, 100%, 0.61)" stroke-width="1.5"></path><path d="M649.08 545.84L649.08 545.84" stroke="hsla(12.899999999999977, 67.3%, 100%, 0.61)" stroke-width="1.5"></path><path d="M648.94 685.77L648.94 685.77" stroke="hsla(12.899999999999977, 67.3%, 100%, 0.61)" stroke-width="1.5"></path><path d="M648.94 685.77L649.08 545.84" stroke="hsla(12.899999999999977, 67.3%, 100%, 0.61)" stroke-width="1.5"></path><path d="M648.94 685.77L524.77 554.17" stroke="hsla(12.899999999999977, 67.3%, 100%, 0.61)" stroke-width="1.5"></path><path d="M790.34 380.02L790.34 380.02" stroke="hsla(12.899999999999977, 67.3%, 100%, 0.61)" stroke-width="1.5"></path><path d="M790.34 380.02L809.47 510.29" stroke="hsla(12.899999999999977, 67.3%, 100%, 0.61)" stroke-width="1.5"></path><path d="M790.34 380.02L951.11 498.14" stroke="hsla(12.899999999999977, 67.3%, 100%, 0.61)" stroke-width="1.5"></path><path d="M790.34 380.02L649.08 545.84" stroke="hsla(12.899999999999977, 67.3%, 100%, 0.61)" stroke-width="1.5"></path><path d="M790.34 380.02L1098.94 410.35" stroke="hsla(12.899999999999977, 67.3%, 100%, 0.61)" stroke-width="1.5"></path><path d="M809.47 510.29L809.47 510.29" stroke="hsla(12.899999999999977, 67.3%, 100%, 0.61)" stroke-width="1.5"></path><path d="M809.47 510.29L951.11 498.14" stroke="hsla(12.899999999999977, 67.3%, 100%, 0.61)" stroke-width="1.5"></path><path d="M846.77 695.6L846.77 695.6" stroke="hsla(12.899999999999977, 67.3%, 100%, 0.61)" stroke-width="1.5"></path><path d="M846.77 695.6L970.5 703.52" stroke="hsla(12.899999999999977, 67.3%, 100%, 0.61)" stroke-width="1.5"></path><path d="M846.77 695.6L809.47 510.29" stroke="hsla(12.899999999999977, 67.3%, 100%, 0.61)" stroke-width="1.5"></path><path d="M951.11 498.14L951.11 498.14" stroke="hsla(12.899999999999977, 67.3%, 100%, 0.61)" stroke-width="1.5"></path><path d="M951.11 498.14L1098.94 410.35" stroke="hsla(12.899999999999977, 67.3%, 100%, 0.61)" stroke-width="1.5"></path><path d="M951.11 498.14L1135.11 540.82" stroke="hsla(12.899999999999977, 67.3%, 100%, 0.61)" stroke-width="1.5"></path><path d="M970.5 703.52L970.5 703.52" stroke="hsla(12.899999999999977, 67.3%, 100%, 0.61)" stroke-width="1.5"></path><path d="M970.5 703.52L951.11 498.14" stroke="hsla(12.899999999999977, 67.3%, 100%, 0.61)" stroke-width="1.5"></path><path d="M970.5 703.52L1135.11 540.82" stroke="hsla(12.899999999999977, 67.3%, 100%, 0.61)" stroke-width="1.5"></path><path d="M970.5 703.52L809.47 510.29" stroke="hsla(12.899999999999977, 67.3%, 100%, 0.61)" stroke-width="1.5"></path><path d="M1126.3 245.25L1126.3 245.25" stroke="hsla(12.899999999999977, 67.3%, 100%, 0.61)" stroke-width="1.5"></path><path d="M1126.3 245.25L1098.94 410.35" stroke="hsla(12.899999999999977, 67.3%, 100%, 0.61)" stroke-width="1.5"></path><path d="M1126.3 245.25L1296.1 391.43" stroke="hsla(12.899999999999977, 67.3%, 100%, 0.61)" stroke-width="1.5"></path><path d="M1126.3 245.25L1301.26 86.39" stroke="hsla(12.899999999999977, 67.3%, 100%, 0.61)" stroke-width="1.5"></path><path d="M1098.94 410.35L1098.94 410.35" stroke="hsla(12.899999999999977, 67.3%, 100%, 0.61)" stroke-width="1.5"></path><path d="M1098.94 410.35L1135.11 540.82" stroke="hsla(12.899999999999977, 67.3%, 100%, 0.61)" stroke-width="1.5"></path><path d="M1135.11 540.82L1135.11 540.82" stroke="hsla(12.899999999999977, 67.3%, 100%, 0.61)" stroke-width="1.5"></path><path d="M1135.11 540.82L1306.77 529.9" stroke="hsla(12.899999999999977, 67.3%, 100%, 0.61)" stroke-width="1.5"></path><path d="M1308.8 -56.27L1308.8 -56.27" stroke="hsla(12.899999999999977, 67.3%, 100%, 0.61)" stroke-width="1.5"></path><path d="M1308.8 -56.27L1389.18 -45.45" stroke="hsla(12.899999999999977, 67.3%, 100%, 0.61)" stroke-width="1.5"></path><path d="M1308.8 -56.27L1301.26 86.39" stroke="hsla(12.899999999999977, 67.3%, 100%, 0.61)" stroke-width="1.5"></path><path d="M1308.8 -56.27L1398.8 80.87" stroke="hsla(12.899999999999977, 67.3%, 100%, 0.61)" stroke-width="1.5"></path><path d="M1301.26 86.39L1301.26 86.39" stroke="hsla(12.899999999999977, 67.3%, 100%, 0.61)" stroke-width="1.5"></path><path d="M1301.26 86.39L1398.8 80.87" stroke="hsla(12.899999999999977, 67.3%, 100%, 0.61)" stroke-width="1.5"></path><path d="M1301.26 86.39L1389.18 -45.45" stroke="hsla(12.899999999999977, 67.3%, 100%, 0.61)" stroke-width="1.5"></path><path d="M1296.1 391.43L1296.1 391.43" stroke="hsla(12.899999999999977, 67.3%, 100%, 0.61)" stroke-width="1.5"></path><path d="M1296.1 391.43L1394.52 394.57" stroke="hsla(12.899999999999977, 67.3%, 100%, 0.61)" stroke-width="1.5"></path><path d="M1306.77 529.9L1306.77 529.9" stroke="hsla(12.899999999999977, 67.3%, 100%, 0.61)" stroke-width="1.5"></path><path d="M1306.77 529.9L1296.1 391.43" stroke="hsla(12.899999999999977, 67.3%, 100%, 0.61)" stroke-width="1.5"></path><path d="M1306.77 529.9L1392.35 647.19" stroke="hsla(12.899999999999977, 67.3%, 100%, 0.61)" stroke-width="1.5"></path><path d="M1306.77 529.9L1462.29 489.47" stroke="hsla(12.899999999999977, 67.3%, 100%, 0.61)" stroke-width="1.5"></path><path d="M1389.18 -45.45L1389.18 -45.45" stroke="hsla(12.899999999999977, 67.3%, 100%, 0.61)" stroke-width="1.5"></path><path d="M1389.18 -45.45L1398.8 80.87" stroke="hsla(12.899999999999977, 67.3%, 100%, 0.61)" stroke-width="1.5"></path><path d="M1398.8 80.87L1398.8 80.87" stroke="hsla(12.899999999999977, 67.3%, 100%, 0.61)" stroke-width="1.5"></path><path d="M1398.8 80.87L1418.43 209.47" stroke="hsla(12.899999999999977, 67.3%, 100%, 0.61)" stroke-width="1.5"></path><path d="M1398.8 80.87L1568.26 109.61" stroke="hsla(12.899999999999977, 67.3%, 100%, 0.61)" stroke-width="1.5"></path><path d="M1418.43 209.47L1418.43 209.47" stroke="hsla(12.899999999999977, 67.3%, 100%, 0.61)" stroke-width="1.5"></path><path d="M1394.52 394.57L1394.52 394.57" stroke="hsla(12.899999999999977, 67.3%, 100%, 0.61)" stroke-width="1.5"></path><path d="M1394.52 394.57L1462.29 489.47" stroke="hsla(12.899999999999977, 67.3%, 100%, 0.61)" stroke-width="1.5"></path><path d="M1394.52 394.57L1306.77 529.9" stroke="hsla(12.899999999999977, 67.3%, 100%, 0.61)" stroke-width="1.5"></path><path d="M1394.52 394.57L1418.43 209.47" stroke="hsla(12.899999999999977, 67.3%, 100%, 0.61)" stroke-width="1.5"></path><path d="M1462.29 489.47L1462.29 489.47" stroke="hsla(12.899999999999977, 67.3%, 100%, 0.61)" stroke-width="1.5"></path><path d="M1392.35 647.19L1392.35 647.19" stroke="hsla(12.899999999999977, 67.3%, 100%, 0.61)" stroke-width="1.5"></path><path d="M1392.35 647.19L1547.91 669.96" stroke="hsla(12.899999999999977, 67.3%, 100%, 0.61)" stroke-width="1.5"></path><path d="M1392.35 647.19L1462.29 489.47" stroke="hsla(12.899999999999977, 67.3%, 100%, 0.61)" stroke-width="1.5"></path><path d="M1392.35 647.19L1160.68 661.83" stroke="hsla(12.899999999999977, 67.3%, 100%, 0.61)" stroke-width="1.5"></path><path d="M1609.44 -44.29L1609.44 -44.29" stroke="hsla(12.899999999999977, 67.3%, 100%, 0.61)" stroke-width="1.5"></path><path d="M1609.44 -44.29L1568.26 109.61" stroke="hsla(12.899999999999977, 67.3%, 100%, 0.61)" stroke-width="1.5"></path><path d="M1609.44 -44.29L1389.18 -45.45" stroke="hsla(12.899999999999977, 67.3%, 100%, 0.61)" stroke-width="1.5"></path><path d="M1609.44 -44.29L1398.8 80.87" stroke="hsla(12.899999999999977, 67.3%, 100%, 0.61)" stroke-width="1.5"></path><path d="M1609.44 -44.29L1571.44 211.02" stroke="hsla(12.899999999999977, 67.3%, 100%, 0.61)" stroke-width="1.5"></path><path d="M1609.44 -44.29L1308.8 -56.27" stroke="hsla(12.899999999999977, 67.3%, 100%, 0.61)" stroke-width="1.5"></path><path d="M1609.44 -44.29L1418.43 209.47" stroke="hsla(12.899999999999977, 67.3%, 100%, 0.61)" stroke-width="1.5"></path><path d="M1568.26 109.61L1568.26 109.61" stroke="hsla(12.899999999999977, 67.3%, 100%, 0.61)" stroke-width="1.5"></path><path d="M1568.26 109.61L1571.44 211.02" stroke="hsla(12.899999999999977, 67.3%, 100%, 0.61)" stroke-width="1.5"></path><path d="M1568.26 109.61L1418.43 209.47" stroke="hsla(12.899999999999977, 67.3%, 100%, 0.61)" stroke-width="1.5"></path><path d="M1571.44 211.02L1571.44 211.02" stroke="hsla(12.899999999999977, 67.3%, 100%, 0.61)" stroke-width="1.5"></path><path d="M1571.44 211.02L1418.43 209.47" stroke="hsla(12.899999999999977, 67.3%, 100%, 0.61)" stroke-width="1.5"></path><path d="M1571.44 211.02L1398.8 80.87" stroke="hsla(12.899999999999977, 67.3%, 100%, 0.61)" stroke-width="1.5"></path><path d="M1571.44 211.02L1394.52 394.57" stroke="hsla(12.899999999999977, 67.3%, 100%, 0.61)" stroke-width="1.5"></path><path d="M1547.91 669.96L1547.91 669.96" stroke="hsla(12.899999999999977, 67.3%, 100%, 0.61)" stroke-width="1.5"></path><path d="M1547.91 669.96L1462.29 489.47" stroke="hsla(12.899999999999977, 67.3%, 100%, 0.61)" stroke-width="1.5"></path><path d="M1547.91 669.96L1297.43 651.19" stroke="hsla(12.899999999999977, 67.3%, 100%, 0.61)" stroke-width="1.5"></path><path d="M1547.91 669.96L1306.77 529.9" stroke="hsla(12.899999999999977, 67.3%, 100%, 0.61)" stroke-width="1.5"></path><circle r="25" cx="-57.48" cy="535" fill="url(&quot;#SvgjsRadialGradient1492&quot;)"></circle><circle r="25" cx="491.04" cy="685.36" fill="url(&quot;#SvgjsRadialGradient1492&quot;)"></circle><circle r="25" cx="1160.68" cy="661.83" fill="url(&quot;#SvgjsRadialGradient1492&quot;)"></circle><circle r="25" cx="1297.86" cy="261.49" fill="url(&quot;#SvgjsRadialGradient1492&quot;)"></circle><circle r="25" cx="1297.43" cy="651.19" fill="url(&quot;#SvgjsRadialGradient1492&quot;)"></circle><circle r="25" cx="1547.22" cy="502.15" fill="url(&quot;#SvgjsRadialGradient1492&quot;)"></circle><circle r="5" cx="-81.17" cy="666.05" fill="rgba(250, 233, 229, 0.8049999999999999)"></circle><circle r="5" cx="84.27" cy="506.75" fill="rgba(250, 233, 229, 0.8049999999999999)"></circle><circle r="5" cx="62.87" cy="647.34" fill="rgba(250, 233, 229, 0.8049999999999999)"></circle><circle r="5" cx="188.45" cy="490.23" fill="rgba(250, 233, 229, 0.8049999999999999)"></circle><circle r="5" cx="391.69" cy="541.39" fill="rgba(250, 233, 229, 0.8049999999999999)"></circle><circle r="5" cx="524.77" cy="554.17" fill="rgba(250, 233, 229, 0.8049999999999999)"></circle><circle r="5" cx="704.01" cy="388.16" fill="rgba(250, 233, 229, 0.8049999999999999)"></circle><circle r="5" cx="649.08" cy="545.84" fill="rgba(250, 233, 229, 0.8049999999999999)"></circle><circle r="5" cx="648.94" cy="685.77" fill="rgba(250, 233, 229, 0.8049999999999999)"></circle><circle r="5" cx="790.34" cy="380.02" fill="rgba(250, 233, 229, 0.8049999999999999)"></circle><circle r="5" cx="809.47" cy="510.29" fill="rgba(250, 233, 229, 0.8049999999999999)"></circle><circle r="5" cx="846.77" cy="695.6" fill="rgba(250, 233, 229, 0.8049999999999999)"></circle><circle r="5" cx="951.11" cy="498.14" fill="rgba(250, 233, 229, 0.8049999999999999)"></circle><circle r="5" cx="970.5" cy="703.52" fill="rgba(250, 233, 229, 0.8049999999999999)"></circle><circle r="5" cx="1126.3" cy="245.25" fill="rgba(250, 233, 229, 0.8049999999999999)"></circle><circle r="5" cx="1098.94" cy="410.35" fill="rgba(250, 233, 229, 0.8049999999999999)"></circle><circle r="5" cx="1135.11" cy="540.82" fill="rgba(250, 233, 229, 0.8049999999999999)"></circle><circle r="5" cx="1308.8" cy="-56.27" fill="rgba(250, 233, 229, 0.8049999999999999)"></circle><circle r="5" cx="1301.26" cy="86.39" fill="rgba(250, 233, 229, 0.8049999999999999)"></circle><circle r="5" cx="1296.1" cy="391.43" fill="rgba(250, 233, 229, 0.8049999999999999)"></circle><circle r="5" cx="1306.77" cy="529.9" fill="rgba(250, 233, 229, 0.8049999999999999)"></circle><circle r="5" cx="1389.18" cy="-45.45" fill="rgba(250, 233, 229, 0.8049999999999999)"></circle><circle r="5" cx="1398.8" cy="80.87" fill="rgba(250, 233, 229, 0.8049999999999999)"></circle><circle r="5" cx="1418.43" cy="209.47" fill="rgba(250, 233, 229, 0.8049999999999999)"></circle><circle r="5" cx="1394.52" cy="394.57" fill="rgba(250, 233, 229, 0.8049999999999999)"></circle><circle r="5" cx="1462.29" cy="489.47" fill="rgba(250, 233, 229, 0.8049999999999999)"></circle><circle r="5" cx="1392.35" cy="647.19" fill="rgba(250, 233, 229, 0.8049999999999999)"></circle><circle r="5" cx="1609.44" cy="-44.29" fill="rgba(250, 233, 229, 0.8049999999999999)"></circle><circle r="5" cx="1568.26" cy="109.61" fill="rgba(250, 233, 229, 0.8049999999999999)"></circle><circle r="5" cx="1571.44" cy="211.02" fill="rgba(250, 233, 229, 0.8049999999999999)"></circle><circle r="5" cx="1547.91" cy="669.96" fill="rgba(250, 233, 229, 0.8049999999999999)"></circle></g><defs><mask id="SvgjsMask1491"><rect width="1440" height="560" fill="#ffffff"></rect></mask><radialGradient id="SvgjsRadialGradient1492"><stop stop-color="#ffffff" offset="0.1"></stop><stop stop-color="rgba(238, 183, 168, 0.61)" offset="0.2"></stop><stop stop-color="rgba(238, 183, 168, 0)" offset="1"></stop></radialGradient></defs></svg>