<svg xmlns="http://www.w3.org/2000/svg" version="1.1" xmlns:xlink="http://www.w3.org/1999/xlink" xmlns:svgjs="http://svgjs.dev/svgjs" width="1440" height="560" preserveAspectRatio="none" viewBox="0 0 1440 560"><g mask="url(&quot;#SvgjsMask1003&quot;)" fill="none"><rect width="1440" height="560" x="0" y="0" fill="rgba(14, 42, 71, 1)"></rect><path d="M1149 135L1148 290" stroke-width="10" stroke="url(&quot;#SvgjsLinearGradient1004&quot;)" stroke-linecap="round" class="Up"></path><path d="M442 451L441 298" stroke-width="6" stroke="url(&quot;#SvgjsLinearGradient1005&quot;)" stroke-linecap="round" class="Down"></path><path d="M1114 59L1113 222" stroke-width="6" stroke="url(&quot;#SvgjsLinearGradient1004&quot;)" stroke-linecap="round" class="Up"></path><path d="M869 182L868 -103" stroke-width="6" stroke="url(&quot;#SvgjsLinearGradient1004&quot;)" stroke-linecap="round" class="Up"></path><path d="M914 401L913 172" stroke-width="6" stroke="url(&quot;#SvgjsLinearGradient1004&quot;)" stroke-linecap="round" class="Up"></path><path d="M35 333L34 20" stroke-width="10" stroke="url(&quot;#SvgjsLinearGradient1004&quot;)" stroke-linecap="round" class="Up"></path><path d="M84 325L83 546" stroke-width="10" stroke="url(&quot;#SvgjsLinearGradient1004&quot;)" stroke-linecap="round" class="Up"></path><path d="M230 324L229 -48" stroke-width="6" stroke="url(&quot;#SvgjsLinearGradient1005&quot;)" stroke-linecap="round" class="Down"></path><path d="M1372 286L1371 110" stroke-width="6" stroke="url(&quot;#SvgjsLinearGradient1005&quot;)" stroke-linecap="round" class="Down"></path><path d="M100 345L99 -47" stroke-width="10" stroke="url(&quot;#SvgjsLinearGradient1005&quot;)" stroke-linecap="round" class="Down"></path><path d="M874 384L873 767" stroke-width="8" stroke="url(&quot;#SvgjsLinearGradient1004&quot;)" stroke-linecap="round" class="Up"></path><path d="M634 171L633 -206" stroke-width="8" stroke="url(&quot;#SvgjsLinearGradient1004&quot;)" stroke-linecap="round" class="Up"></path><path d="M960 431L959 166" stroke-width="10" stroke="url(&quot;#SvgjsLinearGradient1005&quot;)" stroke-linecap="round" class="Down"></path><path d="M1049 112L1048 268" stroke-width="6" stroke="url(&quot;#SvgjsLinearGradient1004&quot;)" stroke-linecap="round" class="Up"></path><path d="M1115 504L1114 100" stroke-width="8" stroke="url(&quot;#SvgjsLinearGradient1005&quot;)" stroke-linecap="round" class="Down"></path><path d="M889 297L888 449" stroke-width="8" stroke="url(&quot;#SvgjsLinearGradient1004&quot;)" stroke-linecap="round" class="Up"></path><path d="M1021 299L1020 -11" stroke-width="6" stroke="url(&quot;#SvgjsLinearGradient1005&quot;)" stroke-linecap="round" class="Down"></path><path d="M107 190L106 609" stroke-width="6" stroke="url(&quot;#SvgjsLinearGradient1005&quot;)" stroke-linecap="round" class="Down"></path><path d="M1026 409L1025 583" stroke-width="10" stroke="url(&quot;#SvgjsLinearGradient1004&quot;)" stroke-linecap="round" class="Up"></path><path d="M184 483L183 740" stroke-width="10" stroke="url(&quot;#SvgjsLinearGradient1004&quot;)" stroke-linecap="round" class="Up"></path><path d="M236 488L235 255" stroke-width="10" stroke="url(&quot;#SvgjsLinearGradient1004&quot;)" stroke-linecap="round" class="Up"></path><path d="M1400 156L1399 -161" stroke-width="8" stroke="url(&quot;#SvgjsLinearGradient1004&quot;)" stroke-linecap="round" class="Up"></path><path d="M1293 290L1292 31" stroke-width="8" stroke="url(&quot;#SvgjsLinearGradient1005&quot;)" stroke-linecap="round" class="Down"></path><path d="M147 417L146 6" stroke-width="10" stroke="url(&quot;#SvgjsLinearGradient1004&quot;)" stroke-linecap="round" class="Up"></path><path d="M739 328L738 -75" stroke-width="6" stroke="url(&quot;#SvgjsLinearGradient1005&quot;)" stroke-linecap="round" class="Down"></path><path d="M1102 17L1101 -395" stroke-width="8" stroke="url(&quot;#SvgjsLinearGradient1005&quot;)" stroke-linecap="round" class="Down"></path><path d="M1227 492L1226 267" stroke-width="6" stroke="url(&quot;#SvgjsLinearGradient1004&quot;)" stroke-linecap="round" class="Up"></path><path d="M413 35L412 -129" stroke-width="8" stroke="url(&quot;#SvgjsLinearGradient1005&quot;)" stroke-linecap="round" class="Down"></path><path d="M210 80L209 275" stroke-width="6" stroke="url(&quot;#SvgjsLinearGradient1004&quot;)" stroke-linecap="round" class="Up"></path><path d="M1105 72L1104 243" stroke-width="6" stroke="url(&quot;#SvgjsLinearGradient1004&quot;)" stroke-linecap="round" class="Up"></path><path d="M3 359L2 -57" stroke-width="8" stroke="url(&quot;#SvgjsLinearGradient1004&quot;)" stroke-linecap="round" class="Up"></path><path d="M1177 44L1176 409" stroke-width="6" stroke="url(&quot;#SvgjsLinearGradient1005&quot;)" stroke-linecap="round" class="Down"></path><path d="M782 520L781 234" stroke-width="8" stroke="url(&quot;#SvgjsLinearGradient1005&quot;)" stroke-linecap="round" class="Down"></path><path d="M517 252L516 653" stroke-width="10" stroke="url(&quot;#SvgjsLinearGradient1005&quot;)" stroke-linecap="round" class="Down"></path><path d="M809 441L808 115" stroke-width="8" stroke="url(&quot;#SvgjsLinearGradient1005&quot;)" stroke-linecap="round" class="Down"></path><path d="M649 436L648 85" stroke-width="6" stroke="url(&quot;#SvgjsLinearGradient1004&quot;)" stroke-linecap="round" class="Up"></path></g><defs><mask id="SvgjsMask1003"><rect width="1440" height="560" fill="#ffffff"></rect></mask><linearGradient x1="0%" y1="100%" x2="0%" y2="0%" id="SvgjsLinearGradient1004"><stop stop-color="rgba(28, 83, 142, 0)" offset="0"></stop><stop stop-color="#1c538e" offset="1"></stop></linearGradient><linearGradient x1="0%" y1="0%" x2="0%" y2="100%" id="SvgjsLinearGradient1005"><stop stop-color="rgba(28, 83, 142, 0)" offset="0"></stop><stop stop-color="#1c538e" offset="1"></stop></linearGradient></defs></svg>