<svg id="visual" viewBox="0 0 900 600" width="900" height="600" xmlns="http://www.w3.org/2000/svg" xmlns:xlink="http://www.w3.org/1999/xlink" version="1.1"><rect width="900" height="600" fill="#ffffff"></rect><g><g transform="translate(185 580)"><path d="M0 -42.9L37.2 -21.5L37.2 21.5L0 42.9L-37.2 21.5L-37.2 -21.5Z" fill="#f6d3cd"></path></g><g transform="translate(461 162)"><path d="M0 -22L19.1 -11L19.1 11L0 22L-19.1 11L-19.1 -11Z" fill="#f6d3cd"></path></g><g transform="translate(227 175)"><path d="M0 -21L18.2 -10.5L18.2 10.5L0 21L-18.2 10.5L-18.2 -10.5Z" fill="#f6d3cd"></path></g><g transform="translate(138 188)"><path d="M0 -37L32 -18.5L32 18.5L0 37L-32 18.5L-32 -18.5Z" fill="#f6d3cd"></path></g><g transform="translate(318 502)"><path d="M0 -40L34.6 -20L34.6 20L0 40L-34.6 20L-34.6 -20Z" fill="#f6d3cd"></path></g><g transform="translate(779 157)"><path d="M0 -35L30.3 -17.5L30.3 17.5L0 35L-30.3 17.5L-30.3 -17.5Z" fill="#f6d3cd"></path></g><g transform="translate(373 200)"><path d="M0 -39L33.8 -19.5L33.8 19.5L0 39L-33.8 19.5L-33.8 -19.5Z" fill="#f6d3cd"></path></g><g transform="translate(53 58)"><path d="M0 -27L23.4 -13.5L23.4 13.5L0 27L-23.4 13.5L-23.4 -13.5Z" fill="#f6d3cd"></path></g><g transform="translate(516 377)"><path d="M0 -23L19.9 -11.5L19.9 11.5L0 23L-19.9 11.5L-19.9 -11.5Z" fill="#f6d3cd"></path></g><g transform="translate(640 490)"><path d="M0 -41L35.5 -20.5L35.5 20.5L0 41L-35.5 20.5L-35.5 -20.5Z" fill="#f6d3cd"></path></g><g transform="translate(402 74)"><path d="M0 -23L19.9 -11.5L19.9 11.5L0 23L-19.9 11.5L-19.9 -11.5Z" fill="#f6d3cd"></path></g><g transform="translate(241 340)"><path d="M0 -28L24.2 -14L24.2 14L0 28L-24.2 14L-24.2 -14Z" fill="#f6d3cd"></path></g><g transform="translate(675 282)"><path d="M0 -25L21.7 -12.5L21.7 12.5L0 25L-21.7 12.5L-21.7 -12.5Z" fill="#f6d3cd"></path></g><g transform="translate(479 557)"><path d="M0 -39L33.8 -19.5L33.8 19.5L0 39L-33.8 19.5L-33.8 -19.5Z" fill="#f6d3cd"></path></g></g></svg>